<?xml version="1.0" encoding="utf-8"?>
<!-- Generator: Adobe Illustrator 21.1.0, SVG Export Plug-In . SVG Version: 6.00 Build 0)  -->
<svg version="1.1" id="レイヤー_1" xmlns="http://www.w3.org/2000/svg" xmlns:xlink="http://www.w3.org/1999/xlink" x="0px"
	 y="0px" viewBox="0 0 109.5 52.4" style="enable-background:new 0 0 109.5 52.4;" xml:space="preserve">
<style type="text/css">
	.st0{fill:#FFFFFF;}
</style>
<g>
	<path class="st0" d="M3,44.4c-0.4,0-0.4,0.1-0.4,0.8c0,0.3,0.1,0.3,0.6,0.5c0.3,0.1,1,0.4,1,1.1c0,0.1,0,0.5-0.3,0.5
		c-0.2,0-0.3-0.1-0.5-0.7c-0.1-0.2-0.5-0.8-0.6-0.8s-0.1,0.1-0.1,0.3c0,0.4,0,2.3,0,2.6c0,0.4,0,2.4,0,2.8c0,0.6-0.5,0.6-0.6,0.6
		c-0.2,0-0.3-0.1-0.3-0.3c0-0.1,0-1,0-1.1c0-0.3,0.1-3.2,0.1-3.6v-0.2c0,0-1.3,2.6-1.7,2.6l0,0c0,0,0.4-0.9,0.5-1
		c0.9-2,1.2-3.7,1.2-3.8c0-0.3-0.3-0.3-0.4-0.3c-0.1,0-0.6,0-0.9,0H0.4c0,0-0.1,0-0.1-0.1L0.1,44c0-0.1-0.1-0.1-0.1-0.1l0,0
		c0.2,0,1.4,0.1,1.6,0.1c0.3,0,0.3,0,0.3-2.1c0-0.2-0.1-1.1-0.1-1.1v-0.1c0.1,0,0.7,0.2,0.8,0.2C2.9,41,2.9,41,2.9,41.1
		s0,0.1-0.2,0.2c-0.1,0.1-0.2,0.2-0.2,0.4s-0.1,1.8-0.1,2c0,0.1,0,0.2,0.3,0.2c0.2,0,0.3-0.2,0.3-0.2c0.1-0.2,0.2-0.3,0.3-0.3
		s0.9,0.6,0.9,0.7c0,0.2-0.3,0.2-0.6,0.2L3,44.4L3,44.4z M8.6,46.4c-0.1,0-0.3,0-0.3,0.2c0,0.2,0.8,2.2,3,3.5
		c0.2,0.1,0.5,0.3,0.5,0.3l-0.1,0.1c-0.2,0-0.4,0.1-0.6,0.1c-0.3,0.1-0.6,0.3-0.7,0.3c-0.1,0-1.3-1.4-2-3.2c0-0.1-0.2-0.5-0.2-0.6
		c0,0,0-0.1-0.1-0.1C8,47,8,47.1,8,47.1c0,0.7,0,3.7,0,4.3c0,0.2,0,0.3-0.1,0.4C7.7,51.9,7.5,52,7.4,52c-0.2,0-0.3-0.1-0.3-0.3
		c0-0.4,0.1-1.2,0.1-1.6c0-0.6,0.1-2.6,0.1-2.6c0-0.2,0-0.2-0.1-0.2c-0.1,0-0.1,0-0.2,0.2c-0.7,1.2-1.5,2.4-3,3.3
		C3.9,50.9,3.6,51,3.5,51c0,0-0.1,0-0.1-0.1s0.3-0.4,0.4-0.5c1.9-1.8,2.7-3.8,2.7-3.9c0-0.3-0.2-0.3-0.5-0.3c-0.3,0-1,0-1.3,0
		c0,0-0.2,0-0.3,0s-0.1,0-0.1-0.1l-0.2-0.3C4,45.7,4,45.7,4,45.7s0,0,0.1,0s0.5,0,0.6,0s1,0.1,1.6,0.1h0.4c0.4,0,0.4-0.1,0.4-0.4
		c0-0.3,0-1.6,0-1.8S7,43.3,6.7,43.3H5.8c-0.3,0-0.3,0-0.5,0.3c-0.4,0.6-1,1.4-1.1,1.4l0,0c0,0,0.4-0.8,0.4-1
		c0.5-1.3,0.7-2.3,0.7-2.6c0-0.3,0-0.3,0.1-0.3c0,0,1.2,0.3,1.2,0.5c0,0.1-0.1,0.1-0.3,0.2c-0.1,0-0.1,0.1-0.3,0.5
		c-0.1,0.2-0.2,0.5-0.2,0.6S5.9,43,6,43h1c0.1,0,0.4,0,0.4-0.3c0-0.2,0-0.9,0-1c0-0.2-0.1-1.1-0.1-1.2c0,0,0-0.1,0.1-0.1
		c0,0,1.2,0.3,1.2,0.4c0,0.1-0.2,0.3-0.2,0.3c-0.1,0.2-0.1,1.3-0.1,1.5c0,0.3,0.1,0.4,0.4,0.4H9c0.3,0,0.4,0,0.5-0.1
		c0.1-0.1,0.5-0.6,0.6-0.6c0.1,0,1,0.7,1,0.8c0,0.2-0.3,0.2-0.7,0.2H8.5c-0.2,0-0.3,0-0.4,0.2C8,43.6,8,44.9,8,45.2
		c0,0.5,0,0.6,0.4,0.6H9c0.5,0,0.6,0,0.7-0.1c0.1-0.1,0.5-0.6,0.6-0.6c0.1,0,1.1,0.6,1.1,0.8c0,0.2-0.3,0.2-0.7,0.2H8.6V46.4z"/>
	<path class="st0" d="M18.5,43.4c0.2,0,0.3,0,0.3-0.2c0-0.1-0.2-1.4-0.2-1.6c0-0.1-0.2-0.8-0.2-0.9h0.1c0.1,0,0.5,0.1,0.9,0.1
		c0.3,0.1,0.5,0.1,0.5,0.3c0,0.1,0,0.1-0.1,0.2s-0.1,0.2-0.1,0.8c0,1.3,0.1,1.3,0.4,1.3h1.4c0.6,0,0.6,0,0.8-0.2
		c0.4-0.5,0.4-0.6,0.6-0.6s1.2,0.7,1.2,0.9s-0.2,0.2-0.7,0.2h-3.3c-0.2,0-0.3,0-0.3,0.2c0,0.1,0.3,1.4,0.5,2.2c0.8,2.4,2.2,4,2.5,4
		c0.2,0,0.4-0.4,0.6-0.7c0.1-0.1,0.3-0.7,0.4-0.7v0.1c0,0-0.2,1.4-0.2,1.7c0,0.2,0,0.3,0.1,0.5s0.1,0.3,0.1,0.4
		c0,0.3-0.2,0.3-0.3,0.3c-1.1,0-3.8-2.7-4.6-7.5c-0.1-0.5-0.1-0.5-0.4-0.5h-3.4c-0.3,0-1.1,0-1.6,0c-0.1,0-0.2,0-0.3,0
		c0,0-0.1,0-0.1-0.1l-0.3-0.3c-0.1-0.1-0.1-0.1-0.1-0.1s0,0,0.1,0c0.1,0,0.5,0,0.6,0.1c0.6,0,1.1,0,1.7,0L18.5,43.4L18.5,43.4z
		 M16.8,46.8c-0.1,0-0.3,0-0.4,0.2c0,0.1-0.1,1.5-0.1,2.2c0,0.8,0,0.9,0.2,0.9c0.2,0,3-0.6,3.1-0.6h0.1c0,0.1-1.8,0.9-3.4,1.4
		c-1.8,0.6-2.2,0.7-2.3,0.8c-0.1,0-0.3,0.4-0.4,0.4S13,50.8,13,50.7c0-0.1,0-0.1,0.4-0.1c0.2,0,1.6-0.2,1.7-0.3
		c0.1-0.1,0.1-0.1,0.1-0.2c0-0.1,0-1.7,0-1.8s0-1.2,0-1.2c0-0.3-0.2-0.3-0.4-0.3c-0.4,0-0.9,0-1.1,0h-0.2c-0.1,0-0.1,0-0.1-0.1
		l-0.2-0.3c-0.1-0.1-0.1-0.1-0.1-0.1s0,0,0.1,0c0.1,0,0.5,0,0.6,0.1c0.6,0,1.1,0,1.7,0h1c0.4,0,0.5,0,0.6,0c0.1-0.1,0.5-0.7,0.6-0.7
		c0.2,0,0.9,0.7,0.9,0.9c0,0.2-0.3,0.2-0.7,0.2L16.8,46.8L16.8,46.8z M20.6,40.8c0.2,0,1.9,0.4,1.9,1.2c0,0.5-0.4,0.5-0.5,0.5
		s-0.2,0-0.4-0.4c-0.2-0.3-0.7-1-1-1.1C20.6,40.9,20.5,40.9,20.6,40.8C20.5,40.8,20.6,40.8,20.6,40.8z"/>
	<path class="st0" d="M24.5,46.2c0-0.1,0-0.1,0.2-0.2c0.1-0.1,1.1-0.8,1.9-1.5c2.2-1.8,3-3.3,3-3.6c0.1-0.4,0.1-0.4,0.3-0.4
		c0,0,1.2,0.6,1.2,0.8c0,0.1,0,0.1-0.2,0.2c-0.1,0-0.1,0.1-0.1,0.1c0,0.4,2.2,3.2,5.2,4c0.4,0.1,0.4,0.1,0.4,0.2s0,0.1-0.4,0.2
		c-0.2,0.1-0.6,0.2-0.8,0.5c-0.1,0.1-0.1,0.1-0.2,0.1c-0.3,0-3-1.9-4.4-4.5c-0.1-0.3-0.2-0.3-0.2-0.3c-0.1,0-0.3,0.3-0.4,0.4
		C27.8,45,24.9,46.2,24.5,46.2C24.6,46.3,24.5,46.3,24.5,46.2z M28,47.9c-0.9,0-1.3,0-1.6,0c0,0-0.2,0-0.3,0c-0.1,0-0.1,0-0.1-0.1
		l-0.2-0.3l-0.1-0.1c0,0,0,0,0.1,0c0.1,0,0.5,0,0.6,0c0.6,0,1.3,0.1,1.7,0.1h4.2c0.5,0,0.7,0,1-0.4c0.1-0.2,0.1-0.2,0.2-0.2
		s0.1,0,0.4,0.3c0.6,0.5,0.6,0.5,0.6,0.7s-0.1,0.2-0.7,0.2h-3.9c-0.1,0-0.2,0-0.2,0s0.6,0.5,0.6,0.6s0,0.1-0.4,0.2
		c-0.1,0-0.1,0.1-0.4,0.5c-0.3,0.4-0.8,1-0.9,1c-0.1,0.1-0.2,0.2-0.2,0.3s0.2,0.1,0.2,0.1c0.2,0,1.4-0.1,2.8-0.2
		c0.9-0.1,1-0.1,1-0.2c0-0.2-0.7-0.8-0.7-1c0-0.1,0.1-0.1,0.1-0.1c0.2,0,1.4,0.7,1.6,0.8c0.3,0.2,1.1,0.7,1.1,1.5
		c0,0.4-0.3,0.7-0.5,0.7c-0.4,0-0.6-0.5-0.9-0.9c0-0.5-0.1-0.5-0.3-0.5c-0.6,0-5.4,1-5.9,1.2c-0.1,0-0.3,0.2-0.4,0.2
		c0,0-0.1,0-0.1-0.1c-0.3-0.4-0.7-1.2-0.7-1.3s0.1-0.1,0.1-0.1c0.1,0,0.5,0.1,0.6,0.1c0.2,0,0.5,0.1,0.7,0.1c0.7,0,0.8,0,1.3-1
		c0.3-0.6,0.7-1.5,0.7-1.7s-0.2-0.2-0.4-0.2H28C28,48.1,28,47.9,28,47.9z M30.6,45.6c0.6,0,0.6,0,0.9-0.3c0.2-0.2,0.4-0.4,0.4-0.4
		c0.1,0,1,0.8,1,0.9s-0.1,0.1-0.7,0.1h-2.9c-0.8,0-1.1,0-1.6,0c0,0-0.2,0-0.3,0c0,0-0.1,0-0.1-0.1l-0.2-0.3C27,45.4,27,45.4,27,45.4
		l0,0c0.1,0,0.5,0,0.6,0c0.6,0,1.2,0.1,1.7,0.1L30.6,45.6L30.6,45.6z"/>
	<path class="st0" d="M36.7,43.6C36.7,43.6,36.6,43.6,36.7,43.6C36.6,43.5,36.7,43.5,36.7,43.6c0.2-0.1,1.4,0,1.7,0
		c0.4,0,0.4-0.1,0.4-0.9c0-0.2,0-0.9-0.1-1.4c0-0.1-0.1-0.4-0.1-0.4s0,0,0.1,0s1,0.3,1.1,0.3c0.1,0,0.1,0.1,0.1,0.2
		c0,0.1-0.2,0.2-0.3,0.3s-0.1,0.2-0.1,0.7v1.1c0,0.2,0.1,0.2,0.2,0.2c0.1,0,0.2,0,0.3-0.1s0.5-0.4,0.6-0.4s0.2,0.1,0.2,0.1
		c0.2,0.2,0.4,0.5,0.5,0.5c0.3,0.3,0.3,0.3,0.3,0.4c0,0.1-0.1,0.1-0.1,0.2c0,0-0.2,0.1-0.3,0.1c-0.2,0.1-1,1.1-1.2,1.3
		c-0.4,0.4-0.4,0.4-0.4,0.6c0,0.3,0.1,0.3,0.4,0.4c0.4,0.1,1.6,0.4,1.6,1.4c0,0.4-0.2,0.6-0.4,0.6c-0.3,0-0.4-0.3-0.8-0.9
		c-0.1-0.1-0.5-0.8-0.7-0.8c-0.1,0-0.1,0.2-0.1,0.3c0,0.5,0,2.8,0,3.3c0,0.2,0.1,0.9,0.1,1.1c0,0.4-0.3,0.6-0.7,0.6
		c-0.3,0-0.4-0.1-0.4-0.3c0-0.1,0.1-0.7,0.1-0.8c0-0.9,0.1-2.2,0.1-3.7c0-0.1,0-0.4-0.1-0.4s-1.8,1.4-2.1,1.4h-0.1
		c0-0.1,0.9-0.9,1.1-1.1c0.5-0.5,2.3-2.7,2.3-3.1c0-0.1-0.1-0.1-0.2-0.1h-0.9c-0.5,0-1,0-1.5,0c0,0-0.2,0-0.3,0s-0.1,0-0.1-0.1
		L36.7,43.6z M40.8,51.4C40.8,51.3,40.8,51.3,40.8,51.4C40.7,51.3,40.8,51.3,40.8,51.4c0.1-0.1,0.5,0,0.6,0c0.4,0,1,0,1.7,0h0.5
		c0.1,0,0.3,0,0.4-0.3c0-0.2,0.1-5.1,0.1-5.7c0-0.1,0-0.4-0.3-0.4s-1,0-1.5,0c0,0-0.2,0-0.3,0c0,0-0.1,0-0.1-0.1l-0.2-0.3
		c-0.1-0.1-0.1-0.1-0.1-0.1l0,0h0.5c0.1,0,1.1,0.1,1.6,0.1c0.3,0,0.3-0.2,0.3-0.5c0-1.2,0-1.7-0.1-2.7c0-0.1-0.1-0.5-0.1-0.6
		s0-0.1,0.1-0.1c0,0,0.8,0.2,0.9,0.3c0.1,0,0.4,0.1,0.4,0.3c0,0.1-0.3,0.3-0.3,0.3c-0.1,0.2-0.1,2.3-0.1,2.6c0,0.2,0,0.4,0.3,0.4
		c0.6,0,0.7,0,0.9-0.4c0.4-0.5,0.4-0.5,0.5-0.5c0.2,0,1.1,0.8,1.1,1.1c0,0.2-0.3,0.2-0.7,0.2h-1.8c-0.3,0-0.4,0.2-0.4,0.4
		c0,0.8,0,4.5,0,5.3c0,0.5,0,0.7,0.3,0.7h0.5c0.2,0,0.5,0,0.7-0.4c0.3-0.4,0.4-0.5,0.5-0.5s1.2,0.8,1.2,1s-0.3,0.2-0.7,0.2h-4.5
		c-0.3,0-1.1,0-1.6,0c0,0-0.2,0-0.3,0c-0.1,0-0.1,0-0.1-0.1L40.8,51.4z"/>
	<path class="st0" d="M51.4,47.5c-0.3,0-0.4,0.2-0.4,0.5s-0.4,0.7-0.8,0.7c-0.3,0-0.3-0.2-0.3-0.3s0-0.5,0.1-0.7c0-0.5,0-1.8,0-2.1
		c0-0.8,0-1.7-0.1-2.4c0-0.1,0-0.4,0-0.5v-0.1c0.1,0,0.2,0.1,1,0.5c0.3,0.1,0.4,0.2,0.7,0.2h2.2c0.4,0,0.4-0.2,0.4-0.5
		c0-0.4,0-1.6,0-2c0-0.1-0.1-0.4-0.1-0.5s0.1-0.1,0.1-0.1c0.1,0,1.3,0.2,1.3,0.5c0,0.1-0.3,0.3-0.3,0.4c-0.1,0.2-0.1,0.3-0.1,1.7
		c0,0.2,0,0.4,0.4,0.4H58c0.1,0,0.3,0,0.4-0.2c0.3-0.3,0.3-0.4,0.4-0.4c0.2,0,1.1,0.7,1.1,0.9c0,0.1-0.3,0.3-0.3,0.4
		c-0.1,0.2-0.1,0.3-0.1,1.7c0,0.3,0,1.6,0,1.9s0,0.4-0.1,0.6c-0.3,0.3-0.6,0.3-0.7,0.3c-0.4,0-0.4-0.3-0.4-0.7c0-0.1,0-0.4-0.4-0.4
		h-2.3c-0.2,0-0.4,0-0.4,0.4c0,0.5,0,2.8,0,3.3c0,0.3,0,1.1-0.7,1.1c-0.4,0-0.4-0.4-0.4-0.5s0.1-0.8,0.1-1c0-0.5,0-2.3,0-2.8
		c0-0.3,0-0.5-0.4-0.5h-2.4V47.5z M53.8,47.2c0.1,0,0.3,0,0.3-0.2c0.1-0.2,0.1-1.8,0.1-2.2c0-1.1,0-1.2-0.4-1.2h-2.5
		c-0.4,0-0.4,0.1-0.4,0.6c0,0.3,0,2,0,2.4c0,0.4,0.1,0.5,0.4,0.5h2.5C53.8,47.1,53.8,47.2,53.8,47.2z M58.1,47.2
		c0.1,0,0.3,0,0.3-0.2c0-0.1,0.1-2.6,0.1-2.9s-0.1-0.4-0.4-0.4h-2.6c-0.4,0-0.4,0.3-0.4,0.5c0,0.3,0,2.6,0,2.8s0.2,0.2,0.4,0.2
		C55.5,47.2,58.1,47.2,58.1,47.2z"/>
	<path class="st0" d="M63.4,47.1C63.3,47.1,63.3,47.1,63.4,47.1C63.3,47,63.4,47,63.4,47.1c0.6-0.1,1.5-0.2,2-0.2
		c0.3,0,0.3-0.1,0.3-0.9c0-0.6,0-0.6-0.5-0.6h-1.9c0,0-0.1,0-0.1-0.1s0.1-0.1,0.1-0.1c0.3,0,1.8-0.3,2.1-0.3
		c1.1-0.2,2.6-0.6,2.6-0.8c0-0.1-0.1-0.1-0.2-0.1H63c-0.2,0-0.4,0.1-0.4,0.4c-0.1,1.9-0.1,4.5-0.9,6.1c-0.6,1-1.2,1.5-1.3,1.5
		c0,0-0.1,0-0.1-0.1s0-0.1,0.1-0.1c0,0,0.1-0.1,0.3-0.4c0.7-1.2,1-2.6,1-7.5c0-1.5,0-1.9-0.1-2.3c0-0.1-0.1-0.4-0.1-0.4
		s0-0.1,0.1-0.1s0.7,0.3,0.8,0.3c0.3,0.1,0.5,0.1,0.7,0.1h6.3c0.2,0,0.4,0,0.5-0.2c0.2-0.2,0.2-0.2,0.3-0.2c0,0,1,0.4,1,0.6
		c0,0.1-0.1,0.1-0.2,0.2C71,42,70.9,42,70.8,42.1c0,0.1,0,1.1,0,1.4c0,0.5,0,0.6-0.1,0.6c-0.2,0.2-0.4,0.2-0.6,0.2
		c-0.3,0-0.3-0.1-0.4-0.3c-0.1-0.2-0.2-0.2-0.4-0.2h-0.6c0,0-0.1,0-0.1,0.1c0,0.2,0.9,0.7,0.9,0.9c0,0.1-0.1,0.2-0.2,0.2
		s-0.3-0.1-0.4-0.1s-2.2,0.2-2.2,0.2c-0.2,0-0.2,0.3-0.2,1c0,0.3,0,0.5,0.4,0.5l0.6-0.1c0.3,0,0.5-0.1,0.6-0.4
		c0.2-0.4,0.2-0.5,0.3-0.5c0.1,0,1,0.5,1,0.8c0,0.1-0.1,0.1-0.1,0.1c-0.1,0-0.1,0.1-0.6,0.1l-1.9,0.2c-0.4,0-0.4,0.1-0.4,0.8
		c0,0.5,0,0.6,0.4,0.6L69,48c0.6-0.1,0.7-0.1,0.8-0.3c0.2-0.5,0.3-0.5,0.4-0.5c0,0,1.2,0.6,1.2,0.8s-0.2,0.2-0.7,0.2l-3.9,0.4
		c-0.3,0-0.4,0.1-0.4,0.4c0,1.5,0.1,1.7,2.1,1.7c0.4,0,1.3,0,1.5-0.3c0.2-0.3,0.5-1,0.6-1.4c0.1-0.3,0.1-0.3,0.1-0.3
		c0.1,0,0.1,0.1,0.1,0.2c0,0.6,0.1,1,0.2,1.3c0,0.1,0.2,0.3,0.2,0.4c0,0.2-0.2,0.4-0.4,0.5c-0.4,0.3-0.9,0.5-2.3,0.5
		c-3.1,0-3.1-0.8-3.1-1.8c0-0.9,0-1-0.4-1h-0.3c-1,0.1-1.4,0.2-1.6,0.2c0,0-0.2,0.1-0.3,0.1c0,0-0.1,0-0.1-0.1l-0.3-0.3
		c-0.1-0.1-0.1-0.1-0.1-0.1s0,0,0.3,0c0.3,0,1.4-0.1,2.1-0.1h0.3c0.4,0,0.4-0.1,0.4-1c0-0.1,0-0.4-0.2-0.4c-0.1,0-0.7,0.1-1.3,0.2
		c-0.1,0-0.3,0.1-0.4,0.1c0,0-0.1,0-0.1-0.1L63.4,47.1z M63.1,41.9c-0.2,0-0.3,0-0.4,0.2c-0.1,0.1-0.1,1.1-0.1,1.3
		c0,0.3,0.2,0.3,0.4,0.3h6.4c0.4,0,0.4-0.1,0.4-0.8c0-0.9,0-1-0.4-1H63.1z"/>
	<path class="st0" d="M75.3,48c-1.1,0-1.4,0-1.6,0c0,0-0.2,0-0.3,0s-0.1,0-0.1-0.1l-0.2-0.3C73,47.5,73,47.5,73,47.5l0,0
		c0.1,0,0.5,0,0.5,0c0.6,0,1.1,0.1,1.7,0.1H78c0.3,0,0.3-0.2,0.3-0.3s0-0.4,0-0.5c0-0.1,0-0.2-0.1-0.2c0,0-0.1,0-0.3,0.2
		c-0.1,0.1-0.3,0.1-0.5,0.1c-0.1,0-0.2,0-0.3-0.4c0-0.1-0.2-0.3-0.3-0.3c-0.1-0.1-0.1-0.1-0.1-0.1l0.1-0.1h0.3c0.5,0,0.6,0,0.6-0.5
		c0-0.5,0-0.7-0.3-0.7h-0.5c-0.3,0-0.4,0.2-0.4,0.4c0,0.5,0,1.3,0,1.5c0,0.1,0,0.5-0.6,0.5c-0.2,0-0.2-0.2-0.2-0.3
		c0,0,0.1-1.5,0.1-1.7c0-0.3-0.2-0.4-0.4-0.4H75c-0.3,0-0.4,0.1-0.4,0.4c0,0.2,0,1.3,0,1.4c0,0.2-0.5,0.4-0.6,0.4
		c-0.2,0-0.2-0.2-0.2-0.3c0-0.2,0-1.2,0-1.4s0-0.9,0-1.1c0-0.1,0-0.1,0.1-0.1s0.6,0.3,0.7,0.3c0.2,0.1,0.3,0.1,0.5,0.1h0.6
		c0.3,0,0.3-0.1,0.3-0.5c0-0.3,0-0.4-0.3-0.4h-0.3c-0.7,0-1.2,0-1.4,0c0,0-0.2,0-0.3,0c0,0-0.1,0-0.1-0.1l-0.2-0.3l-0.1-0.1
		c0,0,0,0,0.1,0s0.4,0,0.4,0c0.2,0,1.2,0.1,1.5,0.1c0.5,0,0.6,0,0.6-0.1C76,43,76,42.8,76,42.5c0-0.4-0.2-0.4-0.4-0.4h-0.5
		c-0.2,0-0.3,0-0.4,0.3c-0.1,0.1-0.5,0.5-0.6,0.5S74,42.8,74,42.8s0.3-0.9,0.3-1.1c0-0.2,0.1-0.6,0.1-0.8c0-0.1,0-0.2,0-0.2
		c0.1,0,1,0.4,1,0.6c0,0.1-0.3,0.4-0.3,0.4c0,0.1,0.1,0.1,0.1,0.1h0.3c0.3,0,0.4,0,0.4-0.4c0-0.1,0-0.7,0-0.8s0.1-0.1,0.1-0.1
		s1,0.2,1,0.4c0,0.1,0,0.1-0.2,0.3c-0.1,0.1-0.1,0.2-0.1,0.3c0,0.3,0.2,0.3,0.3,0.3c0.5,0,0.6,0,0.7-0.1s0.4-0.4,0.5-0.4
		c0.2,0,0.9,0.6,0.9,0.7c0,0.1-0.1,0.1-0.6,0.1h-1.3c-0.5,0.1-0.5,0.3-0.5,0.8c0,0.3,0,0.5,0.4,0.5h0.3c0.5,0,0.6,0,0.7-0.1
		c0.1-0.1,0.4-0.5,0.5-0.5c0,0,1,0.7,1,0.8c0,0.2-0.3,0.2-0.7,0.2H77c-0.3,0-0.4,0-0.4,0.4c0,0.5,0.1,0.5,0.3,0.5h0.4
		c0.1,0,0.3,0,0.4-0.2c0.2-0.2,0.3-0.3,0.4-0.3c0.1,0,0.7,0.4,0.7,0.7c0,0.1,0,0.1-0.2,0.4c0,0.1,0,0.3,0,0.3c0,0.2,0,0.6,0,0.8
		s0,0.2,0.3,0.3c0.7,0.2,0.8,0.2,0.8,0.4c0,0.1,0,0.1-0.2,0.2c-0.1,0.1-0.1,0.2-0.1,0.2c0,0.3,0,0.4,0.3,0.4h2.2
		c0.6,0,0.6,0,0.8-0.2c0.4-0.4,0.4-0.5,0.5-0.5s1.2,0.7,1.2,0.8c0,0.2-0.3,0.2-0.7,0.2h-4c-0.1,0-0.3,0-0.3,0.2
		c0,0.2,0.6,1.2,0.9,1.2c0.2,0,0.6-0.7,0.7-0.8c0.2-0.3,0.2-0.3,0.3-0.3c0.1,0,1.1,0.4,1.1,0.6c0,0.2-0.2,0.2-0.5,0.3
		c-0.4,0.1-1.1,0.5-1.1,0.6c0,0.2,1.1,0.9,2.7,1.2c0.2,0,0.7,0.1,0.7,0.1c0.1,0,0.3,0,0.3,0.1s-0.7,0.3-0.8,0.3
		c-0.2,0.2-0.3,0.3-0.4,0.4s-0.1,0.1-0.2,0.1s-1.5-0.4-2.7-1.6c-0.3-0.3-0.3-0.3-0.4-0.3c0,0-0.6,0.2-0.7,0.3
		c-0.2,0.1-2,0.9-3.5,1.3c-0.2,0.1-0.2,0.1-0.3,0.2c-0.1,0.1-0.1,0.1-0.2,0.1c-0.2,0-0.8-0.8-0.8-1c0-0.2,0.1-0.2,0.7-0.2
		c0.2,0,1.1-0.1,1.2-0.2c0.1-0.1,0.1-0.2,0.1-0.8c0-0.5,0-0.5-0.1-0.5l-0.5,0.2c-0.9,0.4-2.4,1.1-3.1,1.1c0,0-0.2,0-0.2-0.1
		s0-0.1,0.3-0.2c1.3-0.4,3.9-2.1,3.9-2.4c0-0.1-0.1-0.1-0.2-0.1C76.6,48,75.3,48,75.3,48z M78.5,48.3c-0.7,0.5-0.7,0.5-0.7,0.6
		s0,0.8,0,1.2c0,0.3,0,0.4,0.2,0.4c0.1,0,0.2,0,1.5-0.4c0.4-0.1,0.6-0.2,0.6-0.3c0,0,0-0.1-0.2-0.3c0-0.1-0.4-0.5-0.5-1
		C79.3,48.1,79.2,48,79,48C78.8,48,78.7,48.1,78.5,48.3z M81.5,41.8c0,0.1-0.2,0.3-0.2,0.3c-0.1,0.1-0.1,0.2-0.1,0.5
		c0,1,0,1.1,0,1.9c0,0.1,0,0.5,0,0.6c0,0.4-0.6,0.5-0.6,0.5c-0.3,0-0.3-0.3-0.3-0.3c0-0.4,0.1-1.9,0.1-2.3c0-0.3,0-1.5-0.1-1.7v-0.1
		C80.4,41.3,81.5,41.6,81.5,41.8z M83.3,40.9c0.5,0.2,0.5,0.2,0.5,0.3s0,0.1-0.2,0.2c-0.1,0-0.2,0.1-0.2,0.6c0,0.2,0,1.1,0,1.3
		c0,0.4,0,2.1,0,2.5c0,0.3,0,0.8-0.4,1c-0.2,0.1-0.5,0.2-0.5,0.2c-0.1,0-0.1-0.1-0.2-0.3c-0.1-0.2-0.3-0.3-0.9-0.6
		c-0.1,0-0.1-0.1-0.1-0.1h0.1c0.7,0,0.7,0,0.8,0c0.3,0,0.3-0.2,0.3-0.6c0-0.3,0-1.8,0-2.1c0-0.3,0-1.6,0-1.9c0-0.1,0-0.5,0-0.6v-0.1
		C82.6,40.7,83,40.8,83.3,40.9z"/>
	<path class="st0" d="M85.7,47.5c0-0.1,0.3-0.6,0.4-0.7c1.2-1.8,2.1-4.6,2.2-6c0-0.1,0-0.2,0.1-0.2s1.4,0.4,1.4,0.7
		c0,0.1,0,0.1-0.3,0.2c-0.1,0.1-0.2,0.1-0.3,0.5c-0.3,0.7-0.7,1.6-0.7,1.8c0,0.1,0.1,0.2,0.2,0.2c0.1,0.1,0.2,0.1,0.2,0.2
		c0,0.1-0.2,0.3-0.2,0.4c-0.1,0.4-0.1,3.6-0.1,4.1c0,0.4,0,2.3,0,2.7c0,0.2,0,0.8-0.8,0.8c-0.3,0-0.3-0.2-0.3-0.4s0.1-1.2,0.1-1.4
		c0.1-2.2,0.1-2.9,0.1-3.7c0-0.2,0-1.1-0.1-1.1c0,0-0.2,0.3-0.4,0.5C86.9,46.5,86.1,47.6,85.7,47.5C85.8,47.6,85.7,47.6,85.7,47.5z
		 M93.3,48.9c-0.4,0-0.4,0.3-0.4,0.5c0,0.2,0,0.8,0,0.9c0,0.2,0.1,0.8,0.1,1c0,0.6-0.6,0.7-0.8,0.7c-0.3,0-0.3-0.1-0.3-0.3
		c0-0.1,0.1-2.3,0.1-2.6c0-1.2,0-3.7,0-4.9c0-0.2,0-0.4-0.3-0.4h-0.5c-0.2,0-0.2,0.1-0.6,0.5c-0.6,0.9-1.4,1.6-1.5,1.6
		c0,0-0.1,0-0.1-0.1c0-0.1,0.5-0.9,0.6-1.1c0.6-1.2,1.5-3.4,1.5-4.1c0-0.1,0-0.2,0.1-0.2s0.4,0.2,0.5,0.2c0.2,0.1,0.8,0.3,0.8,0.5
		c0,0.1-0.1,0.1-0.2,0.2c-0.2,0.2-0.3,0.3-0.8,1.2c0,0.1-0.4,0.8-0.4,0.8c0,0.1,0.1,0.1,0.3,0.1h3c0.5,0,0.6,0,0.7-0.3
		c0.2-0.3,0.3-0.5,0.5-0.5c0.3,0,1.3,0.8,1.3,0.9c0,0.2-0.3,0.2-0.7,0.2h-3.1c-0.3,0-0.3,0.2-0.3,0.4c0,0.2,0,1,0,1.3
		c0,0.2,0,0.4,0.4,0.4h0.9c0.3,0,0.5,0,0.6,0c0.1-0.1,0.6-0.6,0.7-0.6s1.2,0.7,1.2,0.8c0,0.2-0.3,0.2-0.7,0.2h-2.7
		c-0.4,0-0.4,0.3-0.4,0.4v1.5c0,0.2,0.1,0.3,0.4,0.3h1.1c0.3,0,0.5,0,0.6,0c0.1-0.1,0.6-0.6,0.7-0.6s1.2,0.7,1.2,0.8
		c0,0.1-0.1,0.3-0.5,0.3L93.3,48.9L93.3,48.9z"/>
	<path class="st0" d="M100.2,47.2c-0.3,0-0.3,0.1-0.4,0.6c-0.3,1.9-0.9,3.2-1.5,3.9C98.1,52,98,52,97.9,52h-0.1
		c0-0.1,0.3-0.6,0.3-0.7c0.3-0.8,0.9-2.3,0.9-5.6c0-1.2-0.1-1.7-0.1-2.2c0-0.1-0.1-0.3-0.1-0.4V43c0.1,0,0.6,0.3,0.7,0.4
		c0.3,0.2,0.4,0.2,0.6,0.2h1c0.1,0,0.2,0,0.3-0.2c0.3-0.4,0.3-0.4,0.5-0.4s0.9,0.6,0.9,0.8c0,0.1,0,0.1-0.2,0.4
		c-0.1,0.1-0.1,0.1-0.1,0.4c0,0.4,0,2.1,0,2.5c0,0.8-0.7,0.9-0.8,0.9c-0.3,0-0.3-0.1-0.3-0.4c0-0.2,0-0.4-0.4-0.4H100.2z
		 M101.1,41.5c0.5,0,0.6,0,0.7-0.1c0.1-0.1,0.4-0.6,0.5-0.6s1.2,0.8,1.2,0.9c0,0.1-0.3,0.1-0.7,0.1h-2.2c-0.4,0-0.7,0-1.1,0
		c-0.1,0-0.4,0-0.5,0s-0.1,0-0.1-0.1l-0.3-0.3c0-0.1-0.1-0.1-0.1-0.1s0,0,0.1,0s0.5,0,0.6,0c0.4,0,1,0.1,1.5,0.1L101.1,41.5
		L101.1,41.5z M101.5,46.9c0.4,0,0.4-0.2,0.4-0.6c0-0.3,0-1.9,0-2.1c0-0.2-0.2-0.2-0.4-0.2h-1.1c-0.4,0-0.4,0.2-0.4,0.6
		c0,0.3-0.1,1.8-0.1,2c0,0.1,0,0.4,0.4,0.4h1.2V46.9z M108,45.3c-0.1,0-0.3,0-0.3,0.2c-0.1,0.1-0.1,1.2-0.1,1.4c0,0.7,0,3.9,0,4.5
		c0,0.6-0.6,0.7-0.8,0.7c-0.3,0-0.3-0.1-0.3-0.3c0-0.1,0.1-0.9,0.1-1.1c0-0.9,0-1.9,0-2.8c0-0.2,0-2.4-0.1-2.5
		c-0.1-0.2-0.3-0.2-0.3-0.2h-1c-0.2,0-0.3,0.1-0.3,0.4c-0.2,3-0.7,4.1-1.7,5.1c-0.5,0.5-0.9,0.8-1,0.8h-0.1c0-0.1,0.1-0.2,0.2-0.3
		c1.3-1.4,1.7-2.9,1.7-5.8c0-1-0.1-2.7-0.1-2.9c0-0.1-0.1-0.6-0.1-0.7c0-0.1,0-0.1,0-0.1c0.1,0,0.9,0.3,1,0.3c0.2,0,0.9-0.4,1.6-0.9
		c0.1-0.1,0.8-0.6,0.8-0.6s0.8,0.4,1,0.5c0.3,0.2,0.4,0.2,0.4,0.3c0,0.1-0.1,0.1-0.4,0.2c-0.2,0-2.6,0.7-3.1,0.8
		c-0.1,0-0.1,0-0.2,0.1c0,0.1,0,0.7,0,0.9c0,0.2,0,1.1,0,1.3s0,0.4,0.2,0.4h1.8c0.5,0,0.7,0,0.8-0.2c0.4-0.6,0.4-0.6,0.5-0.6
		c0.2,0,1.3,0.9,1.3,1c0,0.2-0.3,0.2-0.7,0.2H108V45.3z"/>
</g>
<g>
	<polygon class="st0" points="66.1,35.9 53.6,25 65.9,14 57.7,14 50.8,20.2 50.8,0 45.3,0 45.3,35.9 50.8,35.9 50.8,29.8 57.8,35.9 
			"/>
	<path class="st0" d="M38.7,14v0.8v9.4V25v0.7c-0.4,3.4-3.2,6-6.7,6c-3.7,0-6.7-3-6.7-6.7s3-6.7,6.7-6.7c2.3,0,4.3,1.1,5.5,2.9v-7
		c-1.6-0.8-3.5-1.3-5.5-1.3c-6.2,0-11.3,4.6-12,10.6c-0.8-5.5-5.5-9.7-11.1-9.7H5.5H0v5.5V36h5.5V19.2h3.3c3.2,0,5.8,2.6,5.8,5.8
		l0,0l0,0v11h5.5v-8.7c1.1,5.6,6,9.8,11.9,9.8c2.5,0,4.7-0.7,6.7-2v0.8h5.5V14H38.7z"/>
	<path class="st0" d="M97.4,12.7c-5.8,0-10.6,4-11.8,9.4V14h-5.5v0.8v9.4V25v0.7c-0.4,3.4-3.2,6-6.6,6c-3.7,0-6.7-3-6.7-6.7
		s3-6.7,6.7-6.7c2.3,0,4.3,1.1,5.5,2.9v-7c-1.6-0.8-3.5-1.3-5.5-1.3c-6.7,0-12.1,5.4-12.1,12.1s5.4,12.1,12.1,12.1
		c2.5,0,4.7-0.7,6.6-2v0.8h5.5v-8.3c1.2,5.4,6,9.4,11.8,9.4c6.7,0,12.1-5.4,12.1-12.1S104.1,12.7,97.4,12.7z M97.4,31.5
		c-3.7,0-6.6-3-6.6-6.6c0-3.7,3-6.6,6.6-6.6c3.7,0,6.7,3,6.7,6.6C104,28.6,101.1,31.5,97.4,31.5z"/>
</g>
</svg>
