<?xml version="1.0" encoding="utf-8"?>
<!-- Generator: Adobe Illustrator 20.1.0, SVG Export Plug-In . SVG Version: 6.00 Build 0)  -->
<svg version="1.1" id="レイヤー_1" xmlns="http://www.w3.org/2000/svg" xmlns:xlink="http://www.w3.org/1999/xlink" x="0px"
	 y="0px" viewBox="0 0 633.2 355.6" style="enable-background:new 0 0 633.2 355.6;" xml:space="preserve">
<style type="text/css">
	.st0{fill:none;stroke:#18497A;stroke-miterlimit:10;}
	.st1{display:none;fill:none;stroke:#18497A;stroke-miterlimit:10;}
</style>
<g>
	<path class="st0" d="M5,258.4l-1.3,77.3c0,0,2.8,18.5,15,19c0,0,7.8,0.8,8.5-7.5s1.3-80,1.3-80L5,258.4z"/>
	<path class="st0" d="M26.2,353.1l3.2-1.3h2.9l55.2-22.4c0,0,4.1-3,4.1-8.5s1.3-79.3,1.3-79.3v-0.8l-18.4-8h-2.6v-1l34.8-11.5
		c0,0,7.2-3.3,10.1-11.6l2.3,1.1l71.4-24.5c0,0,0.8,0.4,3,0S557,59.1,557,59.1s3.8,2.4,6.8,1.9s48-16.5,48-16.5s2.6-2.6,2.8-4.6h0.8
		L616,32l10.3,3.5c0,0,3.6,0.6,4-2.1s2-20.6,2-20.6s-0.9-0.5-2.4-1s-5.9-2-5.9-2s-3.6-1.1-3.9,1.9s-1.2,13.1-1.2,13.1L603,20.4v-1.5
		l0.3-6l-0.8-1.9l0.3-6.5c0,0-0.5-1.1-1.6-1.3L594.4,1c0,0-3.9-0.3-4,2.3s0,4.3,0,4.3s-6.7-0.1-10,4.6c0,0-4.4,4.8-4,13.5l-6.5,3
		c0,0-1.7,0.7-1.9,1.9s-0.1,1.3-0.1,1.3h-2.6L552,36.6l-0.8-0.4l0.5-8L541,24.1l-40,12.7l-1,1.8l-203.4,67.1l-4.3-1.3l-8,2.9
		l-0.5,0.8v1.8l-72.6,24.8l-2.5-1c0,0-1-1.4-4.5,0.3L84.7,174l-0.9,0.6v2.4l-0.8,1l-3.8-2.6c0,0-7.2-2-13.5,3.9c0,0-3.4,3.5-4,5.6
		l-0.2,0.9l-23.9,7.9l-1,0.4c0,0-4-2.6-7.6-3.5c0,0-5.6-1.4-10.1,2.9L16,197l-7.2-3.1L6.4,193l-4.1,2L1,220.8c0,0-0.4,0.9,2.8,2
		s9.3,3.8,9.3,3.8L12.9,237c0,0-0.7,0.1,3.4,2.3s12.4,5.6,12.4,5.6l3.3-1c0,0,0,1.1,2.2,0.9s20.9-7,20.9-7v2.3l-12.8,4.5
		c0,0-0.4,0.8-0.7,1.6L7.5,259.3"/>
	<path class="st0" d="M72.2,232.7l-1.3,3.5v4.7l12,4.7v4.3l6.2-1.8l-1.7,58.5L37.9,327v17c0,0-2.3,7.8-7.6,8"/>
	<ellipse transform="matrix(0.2139 -0.9769 0.9769 0.2139 -257.9469 267.4229)" class="st0" cx="37.2" cy="294" rx="6.3" ry="4"/>
	<ellipse transform="matrix(0.2139 -0.9769 0.9769 0.2139 -248.6414 280.6796)" class="st0" cx="50.1" cy="294.8" rx="6.3" ry="4"/>
	<ellipse class="st0" cx="83.3" cy="260.6" rx="5.3" ry="6.1"/>
	<path class="st0" d="M76.9,275.9v16c0,0,0.8,3-3.1,6c0,0-3.9,2.7-5.9,0v-19c0,0,0.7-7.7,5.5-7.8S76.9,275.9,76.9,275.9z"/>
	<polyline class="st0" points="20.1,264 55.4,250 64.3,253.4 83.3,245.5 	"/>
	<polyline class="st0" points="28.5,267.1 30.6,269.9 64.4,256.8 64.3,253.4 	"/>
	<path class="st0" d="M54.9,239.9v6c0,0,4.4,4,8.4,4h2l8.1-3.5c0,0-1.3-1.3-2-2.1l-0.3-3.4"/>
	
		<ellipse transform="matrix(0.1632 -0.9866 0.9866 0.1632 -113.0167 272.2231)" class="st0" cx="104" cy="202.7" rx="16.4" ry="14"/>
	
		<ellipse transform="matrix(0.2627 -0.9649 0.9649 0.2627 -118.8664 254.6129)" class="st0" cx="107.2" cy="205.1" rx="10.6" ry="7.4"/>
	
		<ellipse transform="matrix(0.2627 -0.9649 0.9649 0.2627 -169.2967 220.9374)" class="st0" cx="59.9" cy="221.2" rx="10.6" ry="7.4"/>
	<path class="st0" d="M48.1,210.7l-2.7-1.4c3.2-4.6,8.3-7.3,13.5-6.4c7.6,1.3,12.6,9.5,11.2,18.4c-1.5,8.9-8.9,15.1-16.5,13.9
		c-2.4-0.4-4.5-1.5-6.2-3L48.1,210.7z"/>
	<path class="st0" d="M45.5,209.3l-6.6-3.2l-4.4,1.6L33.1,224l-1.6,1.1l-18.6-7.4c0,0-2-2.8-1.5-2.8s0.8-16,0.8-16l4-2.3l1.4,1.8
		l-0.8,13.8c0,0-0.6,2.9,2.5,3.6c0,0,3.9,0.9,6.4-0.1l2.8-1.4l0.9-0.5c0,0,0.2,2,1.3,2.3c0,0,1.2,0.6,2.7-0.3"/>
	<polyline class="st0" points="46.9,231.9 46.9,237.9 41.2,239.1 35.9,236.6 35.9,240.9 31.4,243.8 	"/>
	<polyline class="st0" points="120.9,209.7 121.4,195.9 122.3,195.9 124.9,196.8 124.9,190.9 111.9,184.8 111.9,185.9 111.9,186.9 
		111.9,188.9 	"/>
	<polyline class="st0" points="125.7,191.6 245.9,149.6 245.9,151.9 244.3,152.9 244.3,156.6 124.7,197.6 	"/>
	<line class="st0" x1="193.9" y1="173.9" x2="193.9" y2="184.9"/>
	<path class="st0" d="M247,149.1l-9.7-4.8l-8.4,2.5v3c0,0-2.5,2-3.5,2.3s-2.8,0.6-6.3-0.9l-3.2-1.3h-1.6L111.7,184"/>
	<path class="st0" d="M84.8,173.9l7.5,4l2,0.8c0,0,5.6,0.8,7.4,1.6l100.9-33.9c0,0,0.4-2.3-1.9-2.8s-1.9-0.5-4.9-1.8l-2.5-1
		l17.4-5.8l5,3.1l71.6-25l-3.4-0.9v-2.5"/>
	<line class="st0" x1="202.9" y1="153.6" x2="202.6" y2="146.4"/>
	<polyline class="st0" points="228.9,146.9 228.9,137.9 226.4,135.5 224.2,135.2 	"/>
	<polyline class="st0" points="237.5,144.4 307.4,120.4 311,121.9 319.6,119.3 320.6,114.6 312,111.3 304.4,114.3 312.6,117.3 
		319.5,115.3 	"/>
	<polyline class="st0" points="304.8,120.4 304.4,114.3 312.6,117.3 312.1,121.6 	"/>
	<polyline class="st0" points="296.6,105.8 300.9,107.6 300.9,109.9 298.8,110.4 295.3,109.3 292.3,110.4 284.5,107.4 	"/>
	<path class="st0" d="M291.4,111.9l-5.5,6.8c0,0-1.4,1.4-1.3,2.9c0.1,1.6,0,5.8,0,5.8"/>
	<polyline class="st0" points="293.9,124.9 293.9,122.9 286,119.6 	"/>
	<line class="st0" x1="304.4" y1="114.3" x2="294.3" y2="122.9"/>
	<polyline class="st0" points="92.4,177.7 21.9,201 21.9,215.9 	"/>
	<path class="st0" d="M74.2,195.9c-0.1-0.7,0-1.4,0.1-2.2c0.7-4,3.7-6.8,6.9-6.3c2.2,0.4,3.8,2.3,4.4,4.8L74.2,195.9z"/>
	<path class="st0" d="M30.6,207.6l-2.1,3l-1.3,3c-1-1.5-1.5-3.6-1.1-5.9c0.7-4,3.7-6.8,6.9-6.3c1.8,0.3,3.3,1.7,4,3.6L30.6,207.6z"
		/>
	<line class="st0" x1="41.8" y1="207.5" x2="95.7" y2="190"/>
	<polyline class="st0" points="112.3,185.9 109.6,184.8 104.8,186.5 	"/>
	<polyline class="st0" points="320.6,114.6 529.3,44.4 536.5,47.6 538.3,52.1 542,53.6 575.5,42.4 574.3,51.9 557,59.1 	"/>
	<polyline class="st0" points="301.3,109.9 508.3,40.6 501,36.9 	"/>
	<polyline class="st0" points="310.1,106.9 319.6,111.3 327.4,108.7 326.5,107.6 318.2,104.9 	"/>
	<line class="st0" x1="326.2" y1="101.5" x2="341.8" y2="107.5"/>
	<line class="st0" x1="343.5" y1="95.8" x2="358.7" y2="101.5"/>
	<line class="st0" x1="472.6" y1="52.6" x2="488" y2="58.3"/>
	<line class="st0" x1="486.3" y1="48" x2="501.4" y2="53.3"/>
	<polyline class="st0" points="508.3,40.6 512.4,39.8 508.3,38 520.4,34 527.7,36.9 551.8,28.3 551.6,31.6 527.8,40.2 527.8,37.4 	
		"/>
	<polyline class="st0" points="551.3,36.3 540.1,40 548.1,42.4 535.5,47.2 	"/>
	<polyline class="st0" points="567.3,31.8 577.9,36.3 577.9,40.9 575.2,42.4 	"/>
	<line class="st0" x1="537.4" y1="50" x2="577.5" y2="35.9"/>
	<path class="st0" d="M590.7,2.1l9.1,3.7v4l-16,4.4c0,0-2.6,2.3-2.4,9.5l-5.3,1.8"/>
	<polyline class="st0" points="615.6,35.2 612.4,33.7 591.8,40.6 	"/>
	<path class="st0" d="M574.9,42.5l3-1.6v-4.6l-5.3-2.5c2.5-5.1,7.6-8.1,12.3-6.9c5.5,1.5,8.6,8.2,6.7,15c-1.8,6.8-7.7,11.1-13.3,9.7
		c-3.5-0.9-6.1-4-7-7.9L574.9,42.5z"/>
	<ellipse transform="matrix(0.2653 -0.9642 0.9642 0.2653 390.9763 593.8896)" class="st0" cx="585.2" cy="40.4" rx="7" ry="4.6"/>
	<polyline class="st1" points="590.8,31.6 601.2,29.1 600.8,33 602.9,32.7 607.9,30.1 607.9,25.9 614.4,23.5 	"/>
	<polyline class="st1" points="603.3,20.4 597.8,22.8 608.3,25.9 	"/>
	<line class="st1" x1="596.7" y1="23.1" x2="594.5" y2="27"/>
	<polyline class="st1" points="601.2,29.1 590.8,25.9 586.6,27.5 	"/>
	<line class="st1" x1="604.9" y1="24.9" x2="603.7" y2="31.8"/>
	<path class="st0" d="M594.3,26.8l-4.2-1.7l-0.1,0.1c-0.4-1.4-0.4-3.1,0.1-4.8c1-3.7,3.9-6.2,6.3-5.5c2.4,0.6,3.5,3.9,2.8,7.4
		l-3,1.3L594.3,26.8z"/>
</g>
</svg>
