<?xml version="1.0" encoding="utf-8"?>
<!-- Generator: Adobe Illustrator 20.1.0, SVG Export Plug-In . SVG Version: 6.00 Build 0)  -->
<svg version="1.1" id="レイヤー_1" xmlns="http://www.w3.org/2000/svg" xmlns:xlink="http://www.w3.org/1999/xlink" x="0px"
	 y="0px" viewBox="0 0 485.5 414.7" style="enable-background:new 0 0 485.5 414.7;" xml:space="preserve">
<style type="text/css">
	.st0{fill:none;stroke:#18497A;stroke-width:1.5;stroke-miterlimit:10;}
</style>
<g>
	<path class="st0" d="M104.5,411V234.6c0,0,16.2-40.6,36.4-33.1c19.9,7.5,35.8,28.7,84.6,16.1c0.7-0.2,1.5-0.4,2.2-0.6l4.5-1.3"/>
	<path class="st0" d="M155.1,208.2c0,0-24.6-4.5-32.6,31.1V413"/>
	<path class="st0" d="M265.5,80.7c0,0,180.8-60.9,191.8-69.6"/>
	<path class="st0" d="M320.2,80c0,0,76.9-19,89-25.5"/>
	<g>
		<path class="st0" d="M264.2,334.2c6.3-5.9,12.8-12.3,19.3-19.2c0,0,77.3-82.8,110.7-217.1c0,0,5.6-19.3,7.2-27.3s3.2-15.2,14.3-20
			s65.3-32.7,67.7-38.3s0-5.6,0-5.6s-17.5,6.4-28.7,4S434-0.5,418.9,1.1s-86.8,12.7-102,18.3s-51.7,17.6-66,24.8
			c-14.3,7.2-35.8,12.7-23.1,21.5s11.9,13.9,25.5,14.7c13.5,0.8,57.4-0.4,62.1-0.4s4.8,0,4.8,0s-19.1,74.1-44.6,102
			c-7.2,7.9-13.6,14.1-19.2,18.9"/>
		<path class="st0" d="M37,264.2c10.7-73,67.6-125.8,129.4-122.3c-7.9-3.3-16.2-5.7-25-7C76.1,125.3,14,179.7,2.8,256.3
			s32.6,146.5,97.9,156.1c3.1,0.5,6.2,0.7,9.2,0.9C58.8,391.9,27.2,330.6,37,264.2z"/>
		<path class="st0" d="M166.4,141.9c30.6,12.9,54.2,40,66.1,74c4.4-1.1,12.3-5.1,23.9-15"/>
		<path class="st0" d="M264.2,334.2c-31.9,29.8-61.4,48.1-86.1,59.2c-20.3,13.9-43.9,21.2-68.2,19.9"/>
	</g>
</g>
</svg>
