<?xml version="1.0" encoding="utf-8"?>
<!-- Generator: Adobe Illustrator 20.1.0, SVG Export Plug-In . SVG Version: 6.00 Build 0)  -->
<svg version="1.1" id="レイヤー_1" xmlns="http://www.w3.org/2000/svg" xmlns:xlink="http://www.w3.org/1999/xlink" x="0px"
	 y="0px" viewBox="0 0 247.6 261.7" style="enable-background:new 0 0 247.6 261.7;" xml:space="preserve">
<style type="text/css">
	.st0{fill:none;stroke:#18497A;stroke-width:1.5;stroke-miterlimit:10;}
</style>
<g>
	<rect x="85.6" y="191.9" class="st0" width="75.3" height="34.5"/>
	<g>
		<path class="st0" d="M53.7,179.7"/>
		<path class="st0" d="M116.3,246.2c0,0,12,0,19.5,0s31.3-3.6,38.3-6.1s22-7.7,33.1-15s12.9-14.3,15.4-24.3s-5.7-15-10.5-17
			c0,0-14.3-6.6-18.4-6.3"/>
		<path class="st0" d="M130.3,246.2c0,0-12.3,0-19.8,0s-31.2-3.6-38.2-6.1s-22-7.7-33.1-15s-12.9-14.3-15.4-24.3s5.8-15,10.5-17
			c0,0,12.9-6.1,16.3-6.3"/>
	</g>
	<path class="st0" d="M196.4,173c0.3-0.3,0.9-0.9,2.2-2.1c2.4-2.4,15.3-8.4,24.3-10.8c9-2.4,6.5-9.9,6.5-9.9s0-108.8,0-130.4
		S209.9,1.2,209.9,1.2h-86.6h-2H35c0,0-20.7-3.1-20.7,18.6s0,130.4,0,130.4s-1.9,7.5,7.1,9.9s22.3,8.4,24.7,10.8
		c2.4,2.4,2.6,2.4,2.6,2.4s0.1,0.1,0.2,0.4c-29.2,8.9-48,22.8-48,38.5c0,26.8,55,48.5,122.8,48.5s122.8-21.7,122.8-48.5
		C246.6,196.1,226.8,181.9,196.4,173z"/>
	<g>
		<path class="st0" d="M46.3,171.2c2.4,2.4,2.5,2.3,2.5,2.3s4.7,8,6,9.5s6.8,5.1,12.3,6.3s18.5,2.8,18.5,2.8h74.8"/>
		<path class="st0" d="M198.5,171.2c-2.4,2.4-2.5,2.3-2.5,2.3s-4.7,8-6,9.5s-6.7,5.1-12.2,6.3s-18.5,2.8-18.5,2.8h-75"/>
	</g>
	<path class="st0" d="M21.3,160.2v-132c0,0-1.8-18.3,9.8-18.3s17.2,2.8,22.6,9.5c0,0,8,8.8,8.6,16.4c0.7,7.7-0.2,151.6-0.2,151.6"/>
	<path class="st0" d="M222.3,160.2v-132c0,0,2.1-18.3-9.4-18.3s-17.1,2.8-22.4,9.5c0,0-7.9,8.8-8.5,16.4s-0.1,151.6-0.1,151.6"/>
</g>
</svg>
