<?xml version="1.0" encoding="utf-8"?>
<!-- Generator: Adobe Illustrator 20.1.0, SVG Export Plug-In . SVG Version: 6.00 Build 0)  -->
<svg version="1.1" id="レイヤー_1" xmlns="http://www.w3.org/2000/svg" xmlns:xlink="http://www.w3.org/1999/xlink" x="0px"
	 y="0px" viewBox="0 0 308 339.4" style="enable-background:new 0 0 308 339.4;" xml:space="preserve">
<style type="text/css">
	.st0{fill:none;stroke:#18497A;stroke-width:1.5;stroke-miterlimit:10;}
</style>
<g>
	<path class="st0" d="M176.2,21.2l0.2-10c-25.5-9-44.3-0.1-44.3-0.1v9L1,1.2v308l131,19v7c17,7.3,44,0,44,0v-7l131-19V1.2l-131,19
		l0.2,52.8c0,0-21.7-11.5-44.2,0.3v-52"/>
	<path class="st0" d="M132,18.7c0,0,18.8-8.4,44.2,0"/>
	<path class="st0" d="M176,73.2v18c0,0-22.3-10.8-44.3,0l0.3-18"/>
	<path class="st0" d="M176,91.2v54c0,0-25-8.8-44,1.8V91.2"/>
	<path class="st0" d="M176,145.2v55c0,0-20.3-13.5-44,0v-54"/>
	<path class="st0" d="M176,199.2v54c0,0-29.8-5.8-44,1.3v-55.3"/>
	<path class="st0" d="M176,253.2v19c0,0-23.5-7.5-44,1.5v-19.5"/>
	<line class="st0" x1="132" y1="274.2" x2="132" y2="328.2"/>
	<path class="st0" d="M132,335.2c0,0,18.5-8,44-1v-62"/>
	<g>
		<circle class="st0" cx="250.9" cy="48.5" r="13.4"/>
		<circle class="st0" cx="250.9" cy="279.2" r="13.4"/>
		<circle class="st0" cx="279.2" cy="126.5" r="13.4"/>
		<circle class="st0" cx="279.2" cy="203.5" r="13.4"/>
	</g>
	<g>
		<circle class="st0" cx="56.2" cy="48.5" r="13.4"/>
		<circle class="st0" cx="56.2" cy="279.2" r="13.4"/>
		<circle class="st0" cx="27.9" cy="126.5" r="13.4"/>
		<circle class="st0" cx="27.9" cy="203.5" r="13.4"/>
	</g>
</g>
</svg>
