<?xml version="1.0" encoding="utf-8"?>
<!-- Generator: Adobe Illustrator 20.1.0, SVG Export Plug-In . SVG Version: 6.00 Build 0)  -->
<svg version="1.1" id="レイヤー_1" xmlns="http://www.w3.org/2000/svg" xmlns:xlink="http://www.w3.org/1999/xlink" x="0px"
	 y="0px" viewBox="0 0 270 349" style="enable-background:new 0 0 270 349;" xml:space="preserve">
<style type="text/css">
	.st0{fill:none;stroke:#18497A;stroke-width:1.5;stroke-miterlimit:10;}
</style>
<g>
	<path class="st0" d="M64.3,348h138.3c0,0,52.6-4.8,62.9-51.9c0,0,3.5-9,3.5-22.8s0-47,0-47s-14.5-5.5,0-14.5V63.1
		c0,0-1.4-55.1-66.4-55.1h-22.1l-1.9,6.1L167,14.7V5c0,0-26-9-67,0v11.1l-10.9-0.6l-4-7.5H58.8C58.8,8,1,11.9,1,65.2
		s0,147.3,0,147.3s15,6.7,0,17.5v68.2C1,298.2,9.7,348,64.3,348z"/>
	<circle class="st0" cx="49.1" cy="45.8" r="11.1"/>
	<circle class="st0" cx="39.5" cy="121" r="11.1"/>
	<circle class="st0" cx="217.4" cy="45.8" r="11.1"/>
	<circle class="st0" cx="226.9" cy="121" r="11.1"/>
	<circle class="st0" cx="49.1" cy="308.8" r="11.1"/>
	<circle class="st0" cx="39.5" cy="233.6" r="11.1"/>
	<circle class="st0" cx="217.4" cy="308.8" r="11.1"/>
	<circle class="st0" cx="226.9" cy="233.6" r="11.1"/>
	<rect x="96.6" y="28" class="st0" width="74.7" height="70.5"/>
	<rect x="96.6" y="99.6" class="st0" width="74.7" height="41.9"/>
	<rect x="88.7" y="143.3" class="st0" width="90.4" height="98.7"/>
	<line class="st0" x1="89" y1="196" x2="178" y2="196"/>
	<line class="st0" x1="89" y1="210" x2="178" y2="210"/>
	<rect x="190.6" y="155.8" class="st0" width="67.3" height="36.9"/>
	<rect x="9.9" y="155.8" class="st0" width="67.3" height="36.9"/>
</g>
</svg>
