<?xml version="1.0" encoding="utf-8"?>
<!-- Generator: Adobe Illustrator 20.1.0, SVG Export Plug-In . SVG Version: 6.00 Build 0)  -->
<svg version="1.1" id="レイヤー_1" xmlns="http://www.w3.org/2000/svg" xmlns:xlink="http://www.w3.org/1999/xlink" x="0px"
	 y="0px" viewBox="0 0 304.7 450" style="enable-background:new 0 0 304.7 450;" xml:space="preserve">
<style type="text/css">
	.st0{fill:none;stroke:#18497A;stroke-width:1.5;stroke-miterlimit:10;}
</style>
<g>
	
		<ellipse transform="matrix(0.1814 -0.9834 0.9834 0.1814 148.0096 327.9829)" class="st0" cx="271" cy="75.1" rx="42.9" ry="32.3"/>
	
		<ellipse transform="matrix(0.1814 -0.9834 0.9834 0.1814 -8.2689 255.0471)" class="st0" cx="149.1" cy="132.5" rx="42.9" ry="32.3"/>
	<path class="st0" d="M278.8,32.9c-4.7-0.9-9.5-0.3-14,1.4c0.3-2,0.4-3.2,0.2-3.2c-1.1,0-35.7-11-35.7-11s-1.8,1.1-7,3.5
		c-2.5,1.2-4.1,1.7-5.1,1.9c-3.5-12.6-11.9-22-23.1-24.1c-17.5-3.2-35.3,13.2-39.6,36.5c-0.4,2-0.6,4.1-0.7,6.1H153
		c-37.9,0-49,21.8-49,21.8v6.6c0,0-9,2.6-11.2,3.3c-0.6,0.2-1,0.3-1.5,0.3c-3.8-11.7-11.8-20.3-22.4-22.2
		c-17.5-3.2-35.2,13-39.5,36.4c-3.6,19.8,3.1,38.2,16.1,45.4l-0.5,3.9v4.4l4,2.6v7.7l20.9,10.3L22,183.9l-2.5-1.4l-18.5,7
		c0,0,0,206.2,0,215s17.8,31.4,17.8,31.4c19.6,25.5,48.3,5.9,48.3,5.9L233,357.4V154.1c0-11.8-0.8-10.7-0.8-10.7l-26.2-9.2l17.8-9.9
		l20.7-11.4l1.8-6.4c4.3,5.7,10,9.6,16.7,10.8c17.5,3.2,35.3-13,39.6-36.4C307,57.6,296.3,36.1,278.8,32.9z"/>
	<path class="st0" d="M232.3,143.4L66,216v191.4c0,0,2.5,34.6-8.1,39"/>
	<path class="st0" d="M234.6,154.3L87,220.8v18.8c0,0,14.8,5.5,18.5,7c0,0,1.5,2.9,10,0l-0.2-24.2l23.7-10v42l-38.8,17.3l-13.3,23.4
		l21.1,11.6l9-3.7v-19.1l22-9.2v35.7l-39.6,21L87,355.1V431"/>
	<ellipse transform="matrix(0.9681 -0.2504 0.2504 0.9681 -99.0518 21.2536)" class="st0" cx="34" cy="399.9" rx="16.2" ry="24.1"/>
	<polyline class="st0" points="22,183.9 82.8,208.9 66.5,216 1.7,189.5 	"/>
	<path class="st0" d="M45,136V98.2l12.9-7.7c0,0,12.5-20.2,26.5-13.6l6.6-1.1"/>
	<path class="st0" d="M153,44h26.9c0,0,9.2-16,14.7-18.2s12.1-1.9,15.5-0.1h6.9"/>
	<line class="st0" x1="84.6" y1="76.8" x2="137.1" y2="94.5"/>
	<line class="st0" x1="59.9" y1="88.2" x2="122.4" y2="109.3"/>
	<line class="st0" x1="202.4" y1="23.8" x2="254.9" y2="41.5"/>
	<line class="st0" x1="177.7" y1="44" x2="240.2" y2="65.1"/>
	<path class="st0" d="M166.9,94.5c0,0,63.1-5.6,57.8-34.7"/>
</g>
</svg>
